<?xml version="1.0" encoding="utf-8"?>
<!-- Generator: Adobe Illustrator 19.0.0, SVG Export Plug-In . SVG Version: 6.00 Build 0)  -->
<svg version="1.1" id="Layer_1" xmlns="http://www.w3.org/2000/svg" xmlns:xlink="http://www.w3.org/1999/xlink" x="0px" y="0px"
	 viewBox="903.2 -1743.6 1421.6 2267" style="enable-background:new 903.2 -1743.6 1421.6 2267;" xml:space="preserve">
<style type="text/css">
	.st0{fill:#EB453E;}
	.st1{fill:#161C30;}
	.st2{fill:#ECF0F1;}
	.st3{font-family:'Roboto-Regular';}
	.st4{font-size:25px;}
	.st5{fill:#293D4F;}
	.st6{font-size:13.4402px;}
	.st7{fill:none;stroke:#121C1E;stroke-width:2;stroke-miterlimit:10;}
</style>
<path class="st0" d="M654-1558.6"/>
<rect x="1326" y="-1690" class="st1" width="576" height="135"/>
<rect x="1326" y="-1555" class="st2" width="576" height="315"/>
<text transform="matrix(1 0 0 1 1371 -1636)" class="st2 st3 st4">Stiftung Ethereum</text>
<text transform="matrix(1 0 0 1 1371 -1599)" class="st2 st3 st4">(Ethereum Foundation)</text>
<text transform="matrix(1 0 0 1 1393.9619 -1303)" class="st5 st3 st4">Ultimate Oversight of Ethereum Project</text>
<text transform="matrix(1 0 0 1 1503.6184 -1366)" class="st5 st3 st4">Council: VB, MA, TG</text>
<text transform="matrix(1 0 0 1 1528.6917 -1501)" class="st5 st3 st4">Advisory Board</text>
<text transform="matrix(1 0 0 1 1375.9011 -1416.3228)" class="st5 st3 st6">VB</text>
<g>
	<path class="st5" d="M1397.9-1440.6c0,1.5-0.5,2.7-1.4,3.6s-2.2,1.3-3.7,1.3h-16.7c-1.5,0-2.8-0.4-3.7-1.3
		c-0.9-0.9-1.4-2.1-1.4-3.6c0-0.7,0-1.3,0.1-2c0-0.6,0.1-1.3,0.3-2.1c0.1-0.7,0.3-1.4,0.5-2.1c0.2-0.6,0.5-1.3,0.8-1.9
		c0.3-0.6,0.7-1.1,1.2-1.5c0.4-0.4,1-0.8,1.6-1c0.6-0.3,1.4-0.4,2.1-0.4c0.1,0,0.4,0.1,0.8,0.4c0.4,0.3,0.9,0.6,1.4,0.9
		c0.5,0.3,1.2,0.6,2.1,0.9c0.8,0.3,1.7,0.4,2.5,0.4c0.9,0,1.7-0.1,2.5-0.4c0.8-0.3,1.5-0.6,2.1-0.9c0.5-0.3,1-0.6,1.4-0.9
		s0.7-0.4,0.8-0.4c0.8,0,1.5,0.1,2.1,0.4c0.6,0.3,1.2,0.6,1.6,1s0.8,0.9,1.2,1.5c0.3,0.6,0.6,1.2,0.8,1.9c0.2,0.6,0.4,1.3,0.5,2.1
		c0.1,0.7,0.2,1.4,0.3,2.1C1397.9-1442,1397.9-1441.3,1397.9-1440.6z M1389.6-1462.9c1.4,1.4,2.1,3.2,2.1,5.2s-0.7,3.8-2.1,5.2
		c-1.4,1.4-3.2,2.1-5.2,2.1s-3.8-0.7-5.2-2.1c-1.4-1.4-2.1-3.2-2.1-5.2s0.7-3.8,2.1-5.2s3.2-2.1,5.2-2.1
		C1386.5-1465,1388.2-1464.3,1389.6-1462.9z"/>
</g>
<text transform="matrix(1 0 0 1 1439.5159 -1416.3228)" class="st5 st3 st6">GW</text>
<g>
	<path class="st5" d="M1463.5-1440.6c0,1.5-0.5,2.7-1.4,3.6s-2.2,1.3-3.7,1.3h-16.7c-1.5,0-2.8-0.4-3.7-1.3
		c-0.9-0.9-1.4-2.1-1.4-3.6c0-0.7,0-1.3,0.1-2c0-0.6,0.1-1.3,0.3-2.1c0.1-0.7,0.3-1.4,0.5-2.1c0.2-0.6,0.5-1.3,0.8-1.9
		c0.3-0.6,0.7-1.1,1.2-1.5c0.4-0.4,1-0.8,1.6-1c0.6-0.3,1.4-0.4,2.1-0.4c0.1,0,0.4,0.1,0.8,0.4c0.4,0.3,0.9,0.6,1.4,0.9
		c0.5,0.3,1.2,0.6,2.1,0.9c0.8,0.3,1.7,0.4,2.5,0.4c0.9,0,1.7-0.1,2.5-0.4c0.8-0.3,1.5-0.6,2.1-0.9c0.5-0.3,1-0.6,1.4-0.9
		s0.7-0.4,0.8-0.4c0.8,0,1.5,0.1,2.1,0.4c0.6,0.3,1.2,0.6,1.6,1s0.8,0.9,1.2,1.5c0.3,0.6,0.6,1.2,0.8,1.9c0.2,0.6,0.4,1.3,0.5,2.1
		c0.1,0.7,0.2,1.4,0.3,2.1C1463.5-1442,1463.5-1441.3,1463.5-1440.6z M1455.2-1462.9c1.4,1.4,2.1,3.2,2.1,5.2s-0.7,3.8-2.1,5.2
		s-3.2,2.1-5.2,2.1s-3.8-0.7-5.2-2.1c-1.4-1.4-2.1-3.2-2.1-5.2s0.7-3.8,2.1-5.2c1.4-1.4,3.2-2.1,5.2-2.1
		C1452.1-1465,1453.8-1464.3,1455.2-1462.9z"/>
</g>
<text transform="matrix(1 0 0 1 1505.9758 -1416.3228)" class="st5 st3 st6">JW</text>
<g>
	<path class="st5" d="M1529.1-1440.6c0,1.5-0.5,2.7-1.4,3.6s-2.2,1.3-3.7,1.3h-16.7c-1.5,0-2.8-0.4-3.7-1.3
		c-0.9-0.9-1.4-2.1-1.4-3.6c0-0.7,0-1.3,0.1-2c0-0.6,0.1-1.3,0.3-2.1c0.1-0.7,0.3-1.4,0.5-2.1c0.2-0.6,0.5-1.3,0.8-1.9
		c0.3-0.6,0.7-1.1,1.2-1.5c0.4-0.4,1-0.8,1.6-1c0.6-0.3,1.4-0.4,2.1-0.4c0.1,0,0.4,0.1,0.8,0.4c0.4,0.3,0.9,0.6,1.4,0.9
		c0.5,0.3,1.2,0.6,2.1,0.9c0.8,0.3,1.7,0.4,2.5,0.4c0.9,0,1.7-0.1,2.5-0.4c0.8-0.3,1.5-0.6,2.1-0.9c0.5-0.3,1-0.6,1.4-0.9
		s0.7-0.4,0.8-0.4c0.8,0,1.5,0.1,2.1,0.4c0.6,0.3,1.2,0.6,1.6,1s0.8,0.9,1.2,1.5c0.3,0.6,0.6,1.2,0.8,1.9c0.2,0.6,0.4,1.3,0.5,2.1
		c0.1,0.7,0.2,1.4,0.3,2.1C1529-1442,1529.1-1441.3,1529.1-1440.6z M1520.8-1462.9c1.4,1.4,2.1,3.2,2.1,5.2s-0.7,3.8-2.1,5.2
		s-3.2,2.1-5.2,2.1s-3.8-0.7-5.2-2.1c-1.4-1.4-2.1-3.2-2.1-5.2s0.7-3.8,2.1-5.2c1.4-1.4,3.2-2.1,5.2-2.1
		S1519.4-1464.3,1520.8-1462.9z"/>
</g>
<text transform="matrix(1 0 0 1 1573.0789 -1416.3228)" class="st5 st3 st6">ST</text>
<g>
	<path class="st5" d="M1594.6-1440.6c0,1.5-0.5,2.7-1.4,3.6s-2.2,1.3-3.7,1.3h-16.7c-1.5,0-2.8-0.4-3.7-1.3
		c-0.9-0.9-1.4-2.1-1.4-3.6c0-0.7,0-1.3,0.1-2c0-0.6,0.1-1.3,0.3-2.1c0.1-0.7,0.3-1.4,0.5-2.1c0.2-0.6,0.5-1.3,0.8-1.9
		c0.3-0.6,0.7-1.1,1.2-1.5c0.4-0.4,1-0.8,1.6-1c0.6-0.3,1.4-0.4,2.1-0.4c0.1,0,0.4,0.1,0.8,0.4c0.4,0.3,0.9,0.6,1.4,0.9
		c0.5,0.3,1.2,0.6,2.1,0.9c0.8,0.3,1.7,0.4,2.5,0.4c0.9,0,1.7-0.1,2.5-0.4c0.8-0.3,1.5-0.6,2.1-0.9c0.5-0.3,1-0.6,1.4-0.9
		s0.7-0.4,0.8-0.4c0.8,0,1.5,0.1,2.1,0.4c0.6,0.3,1.2,0.6,1.6,1s0.8,0.9,1.2,1.5c0.3,0.6,0.6,1.2,0.8,1.9c0.2,0.6,0.4,1.3,0.5,2.1
		c0.1,0.7,0.2,1.4,0.3,2.1C1594.6-1442,1594.6-1441.3,1594.6-1440.6z M1586.4-1462.9c1.4,1.4,2.1,3.2,2.1,5.2s-0.7,3.8-2.1,5.2
		c-1.4,1.4-3.2,2.1-5.2,2.1s-3.8-0.7-5.2-2.1c-1.4-1.4-2.1-3.2-2.1-5.2s0.7-3.8,2.1-5.2s3.2-2.1,5.2-2.1S1585-1464.3,1586.4-1462.9z
		"/>
</g>
<text transform="matrix(1 0 0 1 1638.2751 -1416.3228)" class="st5 st3 st6">TG</text>
<g>
	<path class="st5" d="M1660.2-1440.6c0,1.5-0.5,2.7-1.4,3.6s-2.2,1.3-3.7,1.3h-16.7c-1.5,0-2.8-0.4-3.7-1.3
		c-0.9-0.9-1.4-2.1-1.4-3.6c0-0.7,0-1.3,0.1-2c0-0.6,0.1-1.3,0.3-2.1c0.1-0.7,0.3-1.4,0.5-2.1c0.2-0.6,0.5-1.3,0.8-1.9
		c0.3-0.6,0.7-1.1,1.2-1.5c0.4-0.4,1-0.8,1.6-1c0.6-0.3,1.4-0.4,2.1-0.4c0.1,0,0.4,0.1,0.8,0.4c0.4,0.3,0.9,0.6,1.4,0.9
		c0.5,0.3,1.2,0.6,2.1,0.9c0.8,0.3,1.7,0.4,2.5,0.4c0.9,0,1.7-0.1,2.5-0.4c0.8-0.3,1.5-0.6,2.1-0.9c0.5-0.3,1-0.6,1.4-0.9
		s0.7-0.4,0.8-0.4c0.8,0,1.5,0.1,2.1,0.4c0.6,0.3,1.2,0.6,1.6,1c0.4,0.4,0.8,0.9,1.2,1.5c0.3,0.6,0.6,1.2,0.8,1.9
		c0.2,0.6,0.4,1.3,0.5,2.1c0.1,0.7,0.2,1.4,0.3,2.1C1660.2-1442,1660.2-1441.3,1660.2-1440.6z M1652-1462.9c1.4,1.4,2.1,3.2,2.1,5.2
		s-0.7,3.8-2.1,5.2c-1.4,1.4-3.2,2.1-5.2,2.1s-3.8-0.7-5.2-2.1c-1.4-1.4-2.1-3.2-2.1-5.2s0.7-3.8,2.1-5.2s3.2-2.1,5.2-2.1
		S1650.5-1464.3,1652-1462.9z"/>
</g>
<text transform="matrix(1 0 0 1 1705.0437 -1416.3228)" class="st5 st3 st6">JL</text>
<g>
	<path class="st5" d="M1725.8-1440.6c0,1.5-0.5,2.7-1.4,3.6s-2.2,1.3-3.7,1.3H1704c-1.5,0-2.8-0.4-3.7-1.3c-0.9-0.9-1.4-2.1-1.4-3.6
		c0-0.7,0-1.3,0.1-2c0-0.6,0.1-1.3,0.3-2.1c0.1-0.7,0.3-1.4,0.5-2.1c0.2-0.6,0.5-1.3,0.8-1.9s0.7-1.1,1.2-1.5c0.4-0.4,1-0.8,1.6-1
		c0.6-0.3,1.4-0.4,2.1-0.4c0.1,0,0.4,0.1,0.8,0.4c0.4,0.3,0.9,0.6,1.4,0.9c0.5,0.3,1.2,0.6,2.1,0.9c0.8,0.3,1.7,0.4,2.5,0.4
		c0.9,0,1.7-0.1,2.5-0.4s1.5-0.6,2.1-0.9c0.5-0.3,1-0.6,1.4-0.9s0.7-0.4,0.8-0.4c0.8,0,1.5,0.1,2.1,0.4c0.6,0.3,1.2,0.6,1.6,1
		s0.8,0.9,1.2,1.5c0.3,0.6,0.6,1.2,0.8,1.9c0.2,0.6,0.4,1.3,0.5,2.1c0.1,0.7,0.2,1.4,0.3,2.1
		C1725.8-1442,1725.8-1441.3,1725.8-1440.6z M1717.6-1462.9c1.4,1.4,2.1,3.2,2.1,5.2s-0.7,3.8-2.1,5.2s-3.2,2.1-5.2,2.1
		s-3.8-0.7-5.2-2.1c-1.4-1.4-2.1-3.2-2.1-5.2s0.7-3.8,2.1-5.2s3.2-2.1,5.2-2.1S1716.1-1464.3,1717.6-1462.9z"/>
</g>
<text transform="matrix(1 0 0 1 1769.1892 -1416.3228)" class="st5 st3 st6">AD</text>
<g>
	<path class="st5" d="M1791.4-1440.6c0,1.5-0.5,2.7-1.4,3.6s-2.2,1.3-3.7,1.3h-16.7c-1.5,0-2.8-0.4-3.7-1.3
		c-0.9-0.9-1.4-2.1-1.4-3.6c0-0.7,0-1.3,0.1-2c0-0.6,0.1-1.3,0.3-2.1c0.1-0.7,0.3-1.4,0.5-2.1c0.2-0.6,0.5-1.3,0.8-1.9
		s0.7-1.1,1.2-1.5c0.4-0.4,1-0.8,1.6-1c0.6-0.3,1.4-0.4,2.1-0.4c0.1,0,0.4,0.1,0.8,0.4c0.4,0.3,0.9,0.6,1.4,0.9
		c0.5,0.3,1.2,0.6,2.1,0.9c0.8,0.3,1.7,0.4,2.5,0.4c0.9,0,1.7-0.1,2.5-0.4s1.5-0.6,2.1-0.9c0.5-0.3,1-0.6,1.4-0.9s0.7-0.4,0.8-0.4
		c0.8,0,1.5,0.1,2.1,0.4c0.6,0.3,1.2,0.6,1.6,1s0.8,0.9,1.2,1.5c0.3,0.6,0.6,1.2,0.8,1.9c0.2,0.6,0.4,1.3,0.5,2.1
		c0.1,0.7,0.2,1.4,0.3,2.1C1791.4-1442,1791.4-1441.3,1791.4-1440.6z M1783.2-1462.9c1.4,1.4,2.1,3.2,2.1,5.2s-0.7,3.8-2.1,5.2
		s-3.2,2.1-5.2,2.1s-3.8-0.7-5.2-2.1c-1.4-1.4-2.1-3.2-2.1-5.2s0.7-3.8,2.1-5.2s3.2-2.1,5.2-2.1S1781.7-1464.3,1783.2-1462.9z"/>
</g>
<text transform="matrix(1 0 0 1 1833.2997 -1416.3228)" class="st5 st3 st6">MA</text>
<g>
	<path class="st5" d="M1857-1440.6c0,1.5-0.5,2.7-1.4,3.6s-2.2,1.3-3.7,1.3h-16.7c-1.5,0-2.8-0.4-3.7-1.3c-0.9-0.9-1.4-2.1-1.4-3.6
		c0-0.7,0-1.3,0.1-2c0-0.6,0.1-1.3,0.3-2.1c0.1-0.7,0.3-1.4,0.5-2.1c0.2-0.6,0.5-1.3,0.8-1.9s0.7-1.1,1.2-1.5c0.4-0.4,1-0.8,1.6-1
		c0.6-0.3,1.4-0.4,2.1-0.4c0.1,0,0.4,0.1,0.8,0.4c0.4,0.3,0.9,0.6,1.4,0.9c0.5,0.3,1.2,0.6,2.1,0.9c0.8,0.3,1.7,0.4,2.5,0.4
		c0.9,0,1.7-0.1,2.5-0.4s1.5-0.6,2.1-0.9c0.5-0.3,1-0.6,1.4-0.9s0.7-0.4,0.8-0.4c0.8,0,1.5,0.1,2.1,0.4c0.6,0.3,1.2,0.6,1.6,1
		s0.8,0.9,1.2,1.5c0.3,0.6,0.6,1.2,0.8,1.9c0.2,0.6,0.4,1.3,0.5,2.1c0.1,0.7,0.2,1.4,0.3,2.1C1857-1442,1857-1441.3,1857-1440.6z
		 M1848.7-1462.9c1.4,1.4,2.1,3.2,2.1,5.2s-0.7,3.8-2.1,5.2s-3.2,2.1-5.2,2.1s-3.8-0.7-5.2-2.1c-1.4-1.4-2.1-3.2-2.1-5.2
		s0.7-3.8,2.1-5.2s3.2-2.1,5.2-2.1C1845.6-1465,1847.3-1464.3,1848.7-1462.9z"/>
</g>
<image style="overflow:visible;enable-background:new    ;" width="277" height="187" xlink:href="F41A80F2426007D8.jpeg"  transform="matrix(0.1649 0 0 0.1625 1812 -1654)">
</image>
<rect x="1326" y="-601" class="st1" width="576" height="135"/>
<rect x="1326" y="-466" class="st2" width="576" height="378"/>
<text transform="matrix(1 0 0 1 1371 -547.0001)" class="st2 st3 st4">Stiftung Ethereum</text>
<text transform="matrix(1 0 0 1 1371 -510.0001)" class="st2 st3 st4">(Ethereum Foundation)</text>
<text transform="matrix(1 0 0 1 1371 -214.0001)" class="st5 st3 st4">Education &amp; Meet-ups</text>
<text transform="matrix(1 0 0 1 1371 -177.0001)" class="st5 st3 st4">Public Relations</text>
<text transform="matrix(1 0 0 1 1371 -140.0001)" class="st5 st3 st4">Developer Support</text>
<text transform="matrix(1 0 0 1 1659 -214.0001)" class="st5 st3 st4">Industry Outreach</text>
<text transform="matrix(1 0 0 1 1659 -177.0001)" class="st5 st3 st4">Bitcoin Payments</text>
<text transform="matrix(1 0 0 1 1659 -140.0001)" class="st5 st3 st4">Misc Development</text>
<text transform="matrix(1 0 0 1 1518.0471 -277.0001)" class="st5 st3 st4">Communications</text>
<text transform="matrix(1 0 0 1 1528.6917 -412.0001)" class="st5 st3 st4">Advisory Board</text>
<text transform="matrix(1 0 0 1 1537.8961 -327.3228)" class="st5 st3 st6">GW</text>
<g>
	<path class="st5" d="M1561.9-351.6c0,1.5-0.5,2.7-1.4,3.6s-2.2,1.3-3.7,1.3h-16.7c-1.5,0-2.8-0.4-3.7-1.3s-1.4-2.1-1.4-3.6
		c0-0.7,0-1.3,0.1-2c0-0.6,0.1-1.3,0.3-2.1c0.1-0.7,0.3-1.4,0.5-2.1c0.2-0.6,0.5-1.3,0.8-1.9c0.3-0.6,0.7-1.1,1.2-1.5
		c0.4-0.4,1-0.8,1.6-1c0.6-0.3,1.4-0.4,2.1-0.4c0.1,0,0.4,0.1,0.8,0.4c0.4,0.3,0.9,0.6,1.4,0.9s1.2,0.6,2.1,0.9
		c0.8,0.3,1.7,0.4,2.5,0.4c0.9,0,1.7-0.1,2.5-0.4c0.8-0.3,1.5-0.6,2.1-0.9s1-0.6,1.4-0.9s0.7-0.4,0.8-0.4c0.8,0,1.5,0.1,2.1,0.4
		s1.2,0.6,1.6,1s0.8,0.9,1.2,1.5c0.3,0.6,0.6,1.2,0.8,1.9c0.2,0.6,0.4,1.3,0.5,2.1c0.1,0.7,0.2,1.4,0.3,2.1
		C1561.8-353,1561.9-352.3,1561.9-351.6z M1553.6-373.9c1.4,1.4,2.1,3.2,2.1,5.2s-0.7,3.8-2.1,5.2c-1.4,1.4-3.2,2.1-5.2,2.1
		s-3.8-0.7-5.2-2.1s-2.1-3.2-2.1-5.2s0.7-3.8,2.1-5.2c1.4-1.4,3.2-2.1,5.2-2.1C1550.4-376,1552.2-375.3,1553.6-373.9z"/>
</g>
<text transform="matrix(1 0 0 1 1605.4553 -327.3228)" class="st5 st3 st6">VB</text>
<g>
	<path class="st5" d="M1627.4-351.6c0,1.5-0.5,2.7-1.4,3.6s-2.2,1.3-3.7,1.3h-16.7c-1.5,0-2.8-0.4-3.7-1.3s-1.4-2.1-1.4-3.6
		c0-0.7,0-1.3,0.1-2c0-0.6,0.1-1.3,0.3-2.1c0.1-0.7,0.3-1.4,0.5-2.1c0.2-0.6,0.5-1.3,0.8-1.9c0.3-0.6,0.7-1.1,1.2-1.5
		c0.4-0.4,1-0.8,1.6-1c0.6-0.3,1.4-0.4,2.1-0.4c0.1,0,0.4,0.1,0.8,0.4c0.4,0.3,0.9,0.6,1.4,0.9s1.2,0.6,2.1,0.9
		c0.8,0.3,1.7,0.4,2.5,0.4c0.9,0,1.7-0.1,2.5-0.4c0.8-0.3,1.5-0.6,2.1-0.9c0.5-0.3,1-0.6,1.4-0.9s0.7-0.4,0.8-0.4
		c0.8,0,1.5,0.1,2.1,0.4s1.2,0.6,1.6,1s0.8,0.9,1.2,1.5c0.3,0.6,0.6,1.2,0.8,1.9c0.2,0.6,0.4,1.3,0.5,2.1c0.1,0.7,0.2,1.4,0.3,2.1
		C1627.4-353,1627.4-352.3,1627.4-351.6z M1619.2-373.9c1.4,1.4,2.1,3.2,2.1,5.2s-0.7,3.8-2.1,5.2c-1.4,1.4-3.2,2.1-5.2,2.1
		s-3.8-0.7-5.2-2.1s-2.1-3.2-2.1-5.2s0.7-3.8,2.1-5.2c1.4-1.4,3.2-2.1,5.2-2.1S1617.8-375.3,1619.2-373.9z"/>
</g>
<text transform="matrix(1 0 0 1 1669.9431 -327.3228)" class="st5 st3 st6">JW</text>
<g>
	<path class="st5" d="M1693-351.6c0,1.5-0.5,2.7-1.4,3.6s-2.2,1.3-3.7,1.3h-16.7c-1.5,0-2.8-0.4-3.7-1.3s-1.4-2.1-1.4-3.6
		c0-0.7,0-1.3,0.1-2c0-0.6,0.1-1.3,0.3-2.1c0.1-0.7,0.3-1.4,0.5-2.1c0.2-0.6,0.5-1.3,0.8-1.9c0.3-0.6,0.7-1.1,1.2-1.5
		c0.4-0.4,1-0.8,1.6-1c0.6-0.3,1.4-0.4,2.1-0.4c0.1,0,0.4,0.1,0.8,0.4s0.9,0.6,1.4,0.9s1.2,0.6,2.1,0.9c0.8,0.3,1.7,0.4,2.5,0.4
		c0.9,0,1.7-0.1,2.5-0.4s1.5-0.6,2.1-0.9c0.5-0.3,1-0.6,1.4-0.9s0.7-0.4,0.8-0.4c0.8,0,1.5,0.1,2.1,0.4s1.2,0.6,1.6,1
		s0.8,0.9,1.2,1.5c0.3,0.6,0.6,1.2,0.8,1.9c0.2,0.6,0.4,1.3,0.5,2.1c0.1,0.7,0.2,1.4,0.3,2.1C1693-353,1693-352.3,1693-351.6z
		 M1684.8-373.9c1.4,1.4,2.1,3.2,2.1,5.2s-0.7,3.8-2.1,5.2c-1.4,1.4-3.2,2.1-5.2,2.1s-3.8-0.7-5.2-2.1s-2.1-3.2-2.1-5.2
		s0.7-3.8,2.1-5.2c1.4-1.4,3.2-2.1,5.2-2.1C1681.6-376,1683.3-375.3,1684.8-373.9z"/>
</g>
<rect x="1686" y="-1096" class="st1" width="576" height="99"/>
<rect x="1686" y="-997" class="st2" width="576" height="252"/>
<text transform="matrix(1 0 0 1 1731 -1042)" class="st2 st3 st4">Devolution GmbH</text>
<text transform="matrix(1 0 0 1 1760.6514 -808.0001)" class="st5 st3 st4">Oversight of Future Ethereum Delivery</text>
<text transform="matrix(1 0 0 1 1940.6448 -943.0001)" class="st5 st3 st4">Board</text>
<text transform="matrix(1 0 0 1 1965.4553 -858.3228)" class="st5 st3 st6">VB</text>
<g>
	<path class="st5" d="M1987.4-882.6c0,1.5-0.5,2.7-1.4,3.6s-2.2,1.3-3.7,1.3h-16.7c-1.5,0-2.8-0.4-3.7-1.3c-0.9-0.9-1.4-2.1-1.4-3.6
		c0-0.7,0-1.3,0.1-2c0-0.6,0.1-1.3,0.3-2.1c0.1-0.7,0.3-1.4,0.5-2.1c0.2-0.6,0.5-1.3,0.8-1.9s0.7-1.1,1.2-1.5c0.4-0.4,1-0.8,1.6-1
		c0.6-0.3,1.4-0.4,2.1-0.4c0.1,0,0.4,0.1,0.8,0.4s0.9,0.6,1.4,0.9s1.2,0.6,2.1,0.9c0.8,0.3,1.7,0.4,2.5,0.4c0.9,0,1.7-0.1,2.5-0.4
		s1.5-0.6,2.1-0.9c0.5-0.3,1-0.6,1.4-0.9s0.7-0.4,0.8-0.4c0.8,0,1.5,0.1,2.1,0.4s1.2,0.6,1.6,1s0.8,0.9,1.2,1.5
		c0.3,0.6,0.6,1.2,0.8,1.9c0.2,0.6,0.4,1.3,0.5,2.1c0.1,0.7,0.2,1.4,0.3,2.1C1987.4-884,1987.4-883.3,1987.4-882.6z M1979.2-904.9
		c1.4,1.4,2.1,3.2,2.1,5.2s-0.7,3.8-2.1,5.2c-1.4,1.4-3.2,2.1-5.2,2.1s-3.8-0.7-5.2-2.1c-1.4-1.4-2.1-3.2-2.1-5.2s0.7-3.8,2.1-5.2
		c1.4-1.4,3.2-2.1,5.2-2.1S1977.8-906.3,1979.2-904.9z"/>
</g>
<image style="overflow:visible;enable-background:new    ;" width="277" height="193" xlink:href="F41A80F2426007D8.jpeg"  transform="matrix(0.1649 0 0 0.1575 2172 -1060)">
</image>
<rect x="966" y="-1096" class="st1" width="576" height="99"/>
<rect x="966" y="-997" class="st2" width="576" height="252"/>
<text transform="matrix(1 0 0 1 1011 -1042)" class="st2 st3 st4">Ethereum Switzerland GmbH</text>
<text transform="matrix(1 0 0 1 1087.0322 -808.0001)" class="st5 st3 st4">Oversight of Public Ether Sale</text>
<text transform="matrix(1 0 0 1 1220.6448 -943.0001)" class="st5 st3 st4">Board</text>
<image style="overflow:visible;enable-background:new    ;" width="277" height="193" xlink:href="F41A80F2426007D8.jpeg"  transform="matrix(0.1649 0 0 0.1575 1452 -1060)">
</image>
<text transform="matrix(1 0 0 1 1212.6617 -858.3226)" class="st5 st3 st6">VB</text>
<g>
	<path class="st5" d="M1234.6-882.6c0,1.5-0.5,2.7-1.4,3.6s-2.2,1.3-3.7,1.3h-16.7c-1.5,0-2.8-0.4-3.7-1.3s-1.4-2.1-1.4-3.6
		c0-0.7,0-1.3,0.1-2c0-0.6,0.1-1.3,0.3-2.1c0.1-0.7,0.3-1.4,0.5-2.1c0.2-0.6,0.5-1.3,0.8-1.9c0.3-0.6,0.7-1.1,1.2-1.5
		c0.4-0.4,1-0.8,1.6-1c0.6-0.3,1.4-0.4,2.1-0.4c0.1,0,0.4,0.1,0.8,0.4c0.4,0.3,0.9,0.6,1.4,0.9s1.2,0.6,2.1,0.9
		c0.8,0.3,1.7,0.4,2.5,0.4c0.9,0,1.7-0.1,2.5-0.4c0.8-0.3,1.5-0.6,2.1-0.9s1-0.6,1.4-0.9s0.7-0.4,0.8-0.4c0.8,0,1.5,0.1,2.1,0.4
		s1.2,0.6,1.6,1s0.8,0.9,1.2,1.5c0.3,0.6,0.6,1.2,0.8,1.9c0.2,0.6,0.4,1.3,0.5,2.1c0.1,0.7,0.2,1.4,0.3,2.1
		C1234.6-884,1234.6-883.3,1234.6-882.6z M1226.4-904.9c1.4,1.4,2.1,3.2,2.1,5.2s-0.7,3.8-2.1,5.2c-1.4,1.4-3.2,2.1-5.2,2.1
		s-3.8-0.7-5.2-2.1s-2.1-3.2-2.1-5.2s0.7-3.8,2.1-5.2c1.4-1.4,3.2-2.1,5.2-2.1S1225-906.3,1226.4-904.9z"/>
</g>
<text transform="matrix(1 0 0 1 1276.5393 -858.3226)" class="st5 st3 st6">MA</text>
<g>
	<path class="st5" d="M1300.2-882.6c0,1.5-0.5,2.7-1.4,3.6s-2.2,1.3-3.7,1.3h-16.7c-1.5,0-2.8-0.4-3.7-1.3s-1.4-2.1-1.4-3.6
		c0-0.7,0-1.3,0.1-2c0-0.6,0.1-1.3,0.3-2.1c0.1-0.7,0.3-1.4,0.5-2.1c0.2-0.6,0.5-1.3,0.8-1.9c0.3-0.6,0.7-1.1,1.2-1.5
		c0.4-0.4,1-0.8,1.6-1c0.6-0.3,1.4-0.4,2.1-0.4c0.1,0,0.4,0.1,0.8,0.4s0.9,0.6,1.4,0.9s1.2,0.6,2.1,0.9c0.8,0.3,1.7,0.4,2.5,0.4
		c0.9,0,1.7-0.1,2.5-0.4c0.8-0.3,1.5-0.6,2.1-0.9c0.5-0.3,1-0.6,1.4-0.9s0.7-0.4,0.8-0.4c0.8,0,1.5,0.1,2.1,0.4s1.2,0.6,1.6,1
		c0.4,0.4,0.8,0.9,1.2,1.5c0.3,0.6,0.6,1.2,0.8,1.9c0.2,0.6,0.4,1.3,0.5,2.1c0.1,0.7,0.2,1.4,0.3,2.1
		C1300.2-884,1300.2-883.3,1300.2-882.6z M1292-904.9c1.4,1.4,2.1,3.2,2.1,5.2s-0.7,3.8-2.1,5.2c-1.4,1.4-3.2,2.1-5.2,2.1
		s-3.8-0.7-5.2-2.1s-2.1-3.2-2.1-5.2s0.7-3.8,2.1-5.2c1.4-1.4,3.2-2.1,5.2-2.1S1290.5-906.3,1292-904.9z"/>
</g>
<image style="overflow:visible;enable-background:new    ;" width="47" height="29" xlink:href="F41A80F2426007D8.jpeg"  transform="matrix(0.9717 0 0 0.9382 1812 -565.2068)">
</image>
<rect x="1686" y="56" class="st1" width="576" height="99"/>
<rect x="1686" y="155" class="st2" width="576" height="288"/>
<text transform="matrix(1 0 0 1 1731 109.9999)" class="st2 st3 st4">Eth Dev BV</text>
<text transform="matrix(1 0 0 1 1845.8506 343.9999)" class="st5 st3 st4">Go Client Development</text>
<text transform="matrix(1 0 0 1 1871.8506 380.9999)" class="st5 st3 st4">Mist Development</text>
<text transform="matrix(1 0 0 1 1940.6448 208.9999)" class="st5 st3 st4">Board</text>
<text transform="matrix(1 0 0 1 1964.3562 293.6772)" class="st5 st3 st6">JW</text>
<g>
	<path class="st5" d="M1987.4,269.4c0,1.5-0.5,2.7-1.4,3.6c-0.9,0.9-2.2,1.3-3.7,1.3h-16.7c-1.5,0-2.8-0.4-3.7-1.3
		c-0.9-0.9-1.4-2.1-1.4-3.6c0-0.7,0-1.3,0.1-2c0-0.6,0.1-1.3,0.3-2.1c0.1-0.7,0.3-1.4,0.5-2.1c0.2-0.6,0.5-1.3,0.8-1.9
		c0.3-0.6,0.7-1.1,1.2-1.5c0.4-0.4,1-0.8,1.6-1c0.6-0.3,1.4-0.4,2.1-0.4c0.1,0,0.4,0.1,0.8,0.4c0.4,0.3,0.9,0.6,1.4,0.9
		c0.5,0.3,1.2,0.6,2.1,0.9c0.8,0.3,1.7,0.4,2.5,0.4c0.9,0,1.7-0.1,2.5-0.4c0.8-0.3,1.5-0.6,2.1-0.9c0.5-0.3,1-0.6,1.4-0.9
		c0.4-0.3,0.7-0.4,0.8-0.4c0.8,0,1.5,0.1,2.1,0.4c0.6,0.3,1.2,0.6,1.6,1s0.8,0.9,1.2,1.5c0.3,0.6,0.6,1.2,0.8,1.9
		c0.2,0.6,0.4,1.3,0.5,2.1c0.1,0.7,0.2,1.4,0.3,2.1C1987.4,268,1987.4,268.7,1987.4,269.4z M1979.2,247.1c1.4,1.4,2.1,3.2,2.1,5.2
		s-0.7,3.8-2.1,5.2s-3.2,2.1-5.2,2.1s-3.8-0.7-5.2-2.1c-1.4-1.4-2.1-3.2-2.1-5.2s0.7-3.8,2.1-5.2s3.2-2.1,5.2-2.1
		S1977.8,245.7,1979.2,247.1z"/>
</g>
<image style="overflow:visible;enable-background:new    ;" width="50" height="36" xlink:href="F41A80F2426007D8.jpeg"  transform="matrix(0.9134 0 0 0.8626 2172 91.9999)">
</image>
<rect x="966" y="56" class="st1" width="576" height="99"/>
<rect x="966" y="155" class="st2" width="576" height="324"/>
<text transform="matrix(1 0 0 1 1011 109.9999)" class="st2 st3 st4">Ethereum Dev UG</text>
<text transform="matrix(1 0 0 1 1119.375 280.9999)" class="st5 st3 st4">C++ Client Development</text>
<text transform="matrix(1 0 0 1 1156.375 317.9999)" class="st5 st3 st4">Mix Development</text>
<text transform="matrix(1 0 0 1 1078.875 354.9999)" class="st5 st3 st4">Network Protocol Development</text>
<text transform="matrix(1 0 0 1 1134.775 391.9999)" class="st5 st3 st4">Solidity Development</text>
<text transform="matrix(1 0 0 1 1101.575 428.9999)" class="st5 st3 st4">Python Client Development</text>
<text transform="matrix(1 0 0 1 1090.6272 208.9999)" class="st5 st3 st4">Wholly owned by Eth Dev CIC</text>
<image style="overflow:visible;enable-background:new    ;" width="2536" height="1819" xlink:href="F41A80F2426007D8.jpeg"  transform="matrix(1.788399e-02 0 0 1.707202e-02 1452 91.9999)">
</image>
<rect x="1326" y="-1690" class="st7" width="576" height="450"/>
<rect x="966" y="-1096" class="st7" width="576" height="351"/>
<rect x="1686" y="-1096" class="st7" width="576" height="351"/>
<rect x="1326" y="-601" class="st7" width="576" height="513"/>
<rect x="966" y="56" class="st7" width="576" height="423"/>
<rect x="1686" y="56" class="st7" width="576" height="387"/>
<line class="st7" x1="1613.5" y1="-1240" x2="1613.5" y2="-601"/>
<path class="st7" d="M1614-1240c0,74-360,9.7-360,144"/>
<path class="st7" d="M1614-1240c0,74,360,9.7,360,144"/>
<path class="st7" d="M1614-88c0,74-360,9.7-360,144"/>
<path class="st7" d="M1614-88c0,74,360,9.7,360,144"/>
</svg>
