<?xml version="1.0" encoding="utf-8"?>
<!-- Generator: Adobe Illustrator 18.1.1, SVG Export Plug-In . SVG Version: 6.00 Build 0)  -->
<svg version="1.1" id="Layer_1" xmlns="http://www.w3.org/2000/svg" xmlns:xlink="http://www.w3.org/1999/xlink" x="0px" y="0px"
	 viewBox="0 0 1920 1180" enable-background="new 0 0 1920 1180" xml:space="preserve">
<g>
	<path fill="#FBDE00" d="M1809.2,87.1c0,0-35.9-71.6-143.4-86.2s-250.2,161-298.3,183.8c-48.1,22.8-107.6,43.9-342.3,182.2
		S475.9,719.7,475.9,719.7h135.3l-596.5,309l81.5,3.3L0,1093.8c0,0,47.3,6.5,84.8-3.3c37.5-9.8,42.4-17.9,42.4-17.9l50.5,13
		c0,0,360.2-245.6,495.5-271.6s378.1,100.2,378.1,100.2s1.6,62.5,21.2,95c19.6,32.5,102.5,75.2,125.5,87.8
		c23,12.6,31.8,39.8,31.8,39.8s-29.3,0.8-44.8,8.9s-16.3,24.4-16.3,24.4s29.3-17.9,125.5-11.4c96.2,6.5,102.7,21.1,102.7,21.1
		s-7.3-23.6-24.4-32.5c-17.1-8.9-65.5-10.6-84.8-26c-19.2-15.5-145.9-125.2-141.8-180.5s33.4-95.1,61.9-115.5
		c28.5-20.3,232.3-99.2,347.2-204.9c97.8-89.5,153.2-336.7,198.8-382.2c45.6-45.5,166.2-82.9,166.2-82.9L1809.2,87.1z M1690.2,122.3
		c-14.1,0-25.5-11.4-25.5-25.5s11.4-25.5,25.5-25.5s25.5,11.4,25.5,25.5S1704.3,122.3,1690.2,122.3z"/>
</g>
</svg>
