<?xml version="1.0" encoding="utf-8"?>
<!-- Generator: Adobe Illustrator 19.1.0, SVG Export Plug-In . SVG Version: 6.00 Build 0)  -->
<svg version="1.1" id="Layer_1" xmlns="http://www.w3.org/2000/svg" xmlns:xlink="http://www.w3.org/1999/xlink" x="0px" y="0px"
	 viewBox="-68 230.6 911 538.7" style="enable-background:new -68 230.6 911 538.7;" xml:space="preserve">
<style type="text/css">
	.st0{fill:#231F20;}
</style>
<path class="st0" d="M99,693v56.4c-15.5,11.8-38.5,19.9-59.5,19.9c-45.3,0-80.5-33.9-80.5-77.6c0-43.7,35.7-77.2,82-77.2
	c21.9,0,43.7,8.3,58.8,21.4l-14.7,19c-11.8-10.9-28.2-17.5-44.2-17.5c-31.3,0-55.8,23.8-55.8,54.2c0,30.6,24.7,54.5,56,54.5
	c11.4,0,24.3-3.9,35.2-10.5V693L99,693L99,693z M252.7,768.2l-81.6-109.8v109.8h-25.8V615.1h25.4l82,110v-110h25.4v153.1
	L252.7,768.2L252.7,768.2z M478,691.7c0,43.7-35.4,77.6-81.1,77.6s-81.1-33.9-81.1-77.6c0-44,35.4-77.2,81.1-77.2
	S478,647.9,478,691.7z M342,691.7c0,30.4,25.2,54.5,55.1,54.5c30,0,54.5-24.1,54.5-54.5s-24.5-54-54.5-54
	C366.9,637.6,342,661.3,342,691.7z M619.3,629.8l-10.7,22.7c-16.6-10.1-33.2-14.2-44.8-14.2c-15.1,0-24.9,5.7-24.9,16
	c0,33.5,82.7,15.5,82.4,70.6c0,27.3-24.1,44.2-57.7,44.2c-24.1,0-46.8-9.8-62.5-24.3l11.1-22.3c15.7,14.4,35.4,22.3,51.8,22.3
	c17.9,0,28.7-6.8,28.7-18.6c0-34.1-82.7-15.1-82.7-69.5c0-26.2,22.5-42.6,55.8-42.6C585.6,614,605,620.4,619.3,629.8z M661.2,768.2
	V615.1H687v153.1L661.2,768.2L661.2,768.2z M841,629.8l-10.7,22.7c-16.6-10.1-33.2-14.2-44.8-14.2c-15.1,0-24.9,5.7-24.9,16
	c0,33.5,82.7,15.5,82.4,70.6c0,27.3-24.1,44.2-57.7,44.2c-24.1,0-46.8-9.8-62.5-24.3l11.2-22.3c15.7,14.4,35.4,22.3,51.8,22.3
	c17.9,0,28.7-6.8,28.7-18.6c0-34.1-82.7-15.1-82.7-69.5c0-26.2,22.5-42.6,55.8-42.6C807.3,614,826.8,620.4,841,629.8z M523.6,305.3
	l-10.9,10.9c8.8,13.6,11.4,31,5.5,47.5c-10.1,28.1-41,42.7-69.1,32.6c-4-1.4-7.7-3.3-11.1-5.4L402.9,426l-31-31
	c-14.1,9.5-32.4,12.4-49.6,6.2c-28.9-10.4-43.9-42.1-33.5-71c1.6-4.4,3.7-8.5,6.2-12.2l-13.2-13.1l-2.5,4.2
	c-13.8,22.6-21.2,48.5-21.2,75c-0.1,79.7,64.6,144.7,144.3,144.8h0.3c79.5,0,144.4-64.7,144.5-144.3c0.1-26.5-7.2-52.5-20.9-75.1
	L523.6,305.3z M311.3,334.4c-3.8,4.9-6.1,11.1-6.1,17.9c0,16.2,13.1,29.3,29.3,29.3c6.7,0,12.9-2.3,17.9-6.1L311.3,334.4z
	 M455.9,373.1c4.7,3.2,10.3,5,16.4,5c16.2,0,29.3-13.1,29.3-29.3c0-6.1-1.8-11.7-5-16.4L455.9,373.1z M403.2,404.1L283.9,284.4
	l4.6-4.9c29.7-31.5,69.8-48.9,113-48.9h0.3c43.7,0.1,85.5,18.7,114.8,51.1l4.5,4.9L403.2,404.1z M303.5,284.2l99.7,100.1l98.5-98.1
	c-26.4-26.5-62.4-41.6-99.9-41.6h-0.3C364.5,244.6,329.9,258.6,303.5,284.2z M271.6,481.2l-14-0.9c-59.4-3.9-141.3-18.5-194.3-66.2
	c-32.5-29.2-38.7-57-38.9-58.2l-1.8-8.4h216.1l-1.1,7.9c-1,7.3-1.5,14.7-1.5,21.9c-0.1,32.9,9.5,64.8,27.8,92.2L271.6,481.2z
	 M533.4,481.2l7.8-11.7c18.1-27.2,27.7-58.9,27.8-91.6c0-7.5-0.5-15.1-1.5-22.6l-1.1-7.9h216l-1.8,8.4c-0.2,1.2-6.5,29-38.9,58.2
	c-53,47.7-134.9,62.4-194.3,66.2L533.4,481.2z"/>
</svg>
