<?xml version="1.0" encoding="utf-8"?>
<!-- Generator: Adobe Illustrator 16.0.4, SVG Export Plug-In . SVG Version: 6.00 Build 0)  -->
<!DOCTYPE svg PUBLIC "-//W3C//DTD SVG 1.1//EN" "http://www.w3.org/Graphics/SVG/1.1/DTD/svg11.dtd">
<svg version="1.1" id="Layer_1" xmlns="http://www.w3.org/2000/svg" xmlns:xlink="http://www.w3.org/1999/xlink" x="0px" y="0px"
	 width="734.856px" height="251.18px" viewBox="0 0 734.856 251.18" enable-background="new 0 0 734.856 251.18"
	 xml:space="preserve">
<g>
	<path fill="#231F20" d="M38.124,128.7c-3.065,0-5.54-2.468-5.54-5.532V94.01c0-12.004,8.2-25.96,18.661-31.818l24.184-13.502
		c2.684-1.5,6.047-0.543,7.522,2.124c1.501,2.666,0.554,6.046-2.119,7.53L56.636,71.858c-6.911,3.871-12.985,14.217-12.985,22.151
		v29.158C43.651,126.232,41.177,128.7,38.124,128.7"/>
	<path fill="#231F20" d="M103.912,190.053c-6.907,0-13.465-1.605-18.469-4.479l-34.398-19.865
		c-5.894-3.402-9.238-8.439-9.181-13.811c0.066-5.381,3.532-10.325,9.509-13.588l33.972-18.544
		c6.938-3.789,13.025-14.048,13.025-21.95V56.023c0-11.567,7.17-16.734,14.262-16.734c3.17,0,6.448,0.958,9.741,2.859l34.39,19.857
		c10.358,5.993,18.476,20.029,18.476,32v39.719c0,11.96-8.117,25.999-18.476,31.984l-34.39,19.865
		C117.374,188.447,110.804,190.053,103.912,190.053 M112.633,50.356c-2.776,0-3.189,3.542-3.189,5.667v41.793
		c0,11.995-8.264,25.925-18.796,31.669l-33.967,18.533c-2.735,1.502-3.742,3.056-3.749,4.02c-0.013,0.942,0.94,2.527,3.652,4.092
		l34.385,19.848c3.305,1.905,8.013,3.002,12.942,3.002c4.914,0,9.636-1.097,12.935-3.002l34.383-19.848
		c6.886-3.979,12.936-14.463,12.936-22.405V94.006c0-7.953-6.05-18.425-12.936-22.4l-34.383-19.861
		C114.856,50.594,113.452,50.356,112.633,50.356"/>
	<path fill="#231F20" d="M103.911,227.862c-6.907,0-13.462-1.585-18.468-4.469l-67.139-38.782
		c-10.379-5.982-18.412-20.049-18.303-32.036l0.71-74.355c0.116-11.893,8.13-26.087,18.235-32.308L85.564,4.887
		C90.675,1.733,97.405,0,104.523,0c6.647,0,12.992,1.541,17.85,4.362l67.145,38.746c10.359,5.972,18.476,20.028,18.476,31.982
		v77.536c0,11.959-8.117,26.015-18.476,31.984l-67.145,38.782C117.374,226.277,110.802,227.862,103.911,227.862 M104.523,11.069
		c-5.011,0-9.81,1.181-13.14,3.233L24.757,55.344c-6.842,4.21-12.91,14.944-12.987,22.971l-0.703,74.376
		c-0.076,7.924,5.891,18.362,12.768,22.347l67.134,38.752c3.305,1.905,8.013,3.01,12.941,3.01c4.914,0,9.637-1.104,12.936-3.01
		l67.139-38.752c6.886-3.984,12.934-14.45,12.934-22.41V75.091c0-7.953-6.048-18.428-12.934-22.398L116.847,13.94
		C113.683,12.105,109.193,11.069,104.523,11.069"/>
	<path fill="#231F20" d="M319.472,164.548c-0.142,0-0.272,0-0.419-0.019c-5.057-0.403-5.232-5.314-5.333-7.955
		c-0.091-2.744-0.142-7.312-0.142-13.609c0-11.727-7.35-16.108-13.514-17.698c-1.992-0.514-4.218-0.927-6.616-1.225
		c-1.132-0.142-2.086-0.239-2.905-0.305c-1.797,0.101-3.692,0.163-5.655,0.204c-2.057-0.064-3.788-0.939-4.821-2.59
		c-1.132-1.81-1.112-4.211,0.027-6.005c1.803-2.862,4.875-3.263,10.775-2.714c24.274-1.451,24.126-7.883,23.977-14.67
		c-0.004-0.71-0.025-1.415-0.025-2.114c0-6.75-8.026-14.425-15.074-14.425c-1.879,0-3.267-0.017-4.56-0.033
		c-2.623-0.026-4.866-0.055-10.3,0.071c-3.082,0.097-5.59-2.362-5.67-5.417c-0.057-3.054,2.371-5.586,5.426-5.654
		c5.642-0.121,7.942-0.09,10.665-0.067c1.258,0.014,2.602,0.031,4.439,0.031c13.193,0,26.154,12.621,26.154,25.494
		c0,0.625,0.005,1.252,0.019,1.877c0.207,9.948-2.25,17.345-12.458,21.719c5.765,4.129,11.183,11.271,11.183,23.521
		c0,9.328,0.116,12.905,0.194,14.26c0.238,0.787,0.309,1.637,0.181,2.513C324.588,162.44,322.178,164.548,319.472,164.548"/>
	<path fill="#231F20" d="M263.23,164.399h-0.025c-3.06-0.013-5.519-2.493-5.508-5.551l0.432-82.343
		c0.014-3.057,2.492-5.514,5.542-5.514h0.023c3.053,0.014,5.515,2.511,5.503,5.566l-0.426,82.342
		C268.758,161.945,266.276,164.399,263.23,164.399"/>
	<path fill="#231F20" d="M397.975,165.817c-22.531,0-37.102-11.523-37.102-29.374v-60.62c0-3.052,2.466-5.522,5.538-5.522
		c3.055,0,5.534,2.471,5.534,5.522v60.62c0,11.474,9.733,18.313,26.03,18.313c3.055,0,5.533,2.479,5.533,5.533
		C403.508,163.344,401.03,165.817,397.975,165.817"/>
	<path fill="#231F20" d="M400.604,165.817h-8.194c-3.06,0-5.54-2.474-5.54-5.527c0-3.055,2.48-5.533,5.54-5.533h8.194
		c16.31,0,26.037-6.84,26.037-18.313v-60.62c0-3.052,2.479-5.522,5.531-5.522c3.068,0,5.541,2.471,5.541,5.522v60.62
		C437.713,154.294,423.149,165.817,400.604,165.817"/>
	<path fill="#231F20" d="M516.938,163.886h-34.791c-3.053,0-5.541-2.47-5.541-5.521v-19.337c0-6.346-0.167-20.138-0.334-33.483
		c-0.146-12.22-0.309-23.928-0.309-28.874c0-3.069,2.48-5.54,5.545-5.54c3.054,0,5.541,2.471,5.541,5.54
		c0,4.914,0.143,16.568,0.289,28.734c0.168,13.371,0.343,27.205,0.343,33.623v13.791h29.257c8.806,0,16.093-6.442,16.947-14.978
		c0.253-2.481-0.047-6.075-2.854-9.172c-4.166-4.613-12.844-7.059-25.09-7.059c-3.06,0-5.527-2.48-5.527-5.541
		c0-3.052,2.468-5.54,5.527-5.54c15.682,0,26.874,3.611,33.303,10.704c5.824,6.43,6.035,13.85,5.669,17.698
		C543.47,153.166,531.457,163.886,516.938,163.886"/>
	<path fill="#231F20" d="M507.424,122.342c-3.053,0-5.539-2.466-5.539-5.521c0-3.057,2.486-5.541,5.539-5.541
		c15.931,0,22.713-5.458,22.713-18.264c0-3.273-2.736-12.306-11.562-12.306h-14.862c-3.059,0-5.539-2.47-5.539-5.541
		c0-3.055,2.48-5.529,5.539-5.529h14.862c15.44,0,22.634,13.946,22.634,23.376C541.209,106.406,535.348,122.342,507.424,122.342"/>
	<path fill="#231F20" d="M589.354,165.786c-3.064,0-5.533-2.47-5.533-5.521V75.851c0-3.054,2.469-5.527,5.533-5.527
		c3.059,0,5.535,2.474,5.535,5.527v84.415C594.889,163.316,592.413,165.786,589.354,165.786"/>
	<path fill="#231F20" d="M639.366,165.321c-1.371,0-2.736-0.514-3.809-1.525c-2.221-2.1-2.316-5.61-0.209-7.829l79.199-83.546
		c2.105-2.223,5.607-2.318,7.826-0.222c2.219,2.113,2.318,5.61,0.213,7.833l-79.207,83.549
		C642.292,164.735,640.829,165.321,639.366,165.321"/>
	<path fill="#231F20" d="M664.018,108.236c-1.48,0-2.963-0.58-4.053-1.764l-24.65-26.484c-2.084-2.234-1.965-5.735,0.275-7.819
		c2.223-2.082,5.734-1.958,7.822,0.279l24.652,26.483c2.092,2.236,1.965,5.752-0.271,7.817
		C666.725,107.753,665.372,108.236,664.018,108.236"/>
	<path fill="#231F20" d="M718.569,165.321c-1.545,0-3.057-0.637-4.152-1.876l-22.871-25.829c-2.023-2.294-1.803-5.784,0.477-7.809
		c2.291-2.04,5.783-1.82,7.818,0.471l22.875,25.829c2.027,2.295,1.812,5.785-0.482,7.808
		C721.188,164.859,719.879,165.321,718.569,165.321"/>
</g>
<g>
	<path fill="#231F20" d="M404.459,215.777c-0.453-1.725-0.315-3.595,1.924-4.082c2.297-0.496,3.316,1.414,3.768,3.139l4.207,16.165
		c0.449,1.726,0.542,3.136,1.565,3.136c1.153,0,1.112-1.41,1.562-3.136l4.626-16.778c0.326-1.243,1.244-3.084,3.377-2.525
		c2.184,0.575,2.306,1.984,1.873,3.988l-8.82,33.007c-0.458,1.723-1.894,2.761-3.504,2.428c-1.586-0.331-2.441-2.062-1.961-3.783
		l1.451-4.947c1.049-2.85-0.193-3.126-1.498-3.126c-1.307,0-2.74-1.407-3.194-3.134L404.459,215.777z"/>
	<path fill-rule="evenodd" clip-rule="evenodd" fill="#231F20" d="M454.591,240.519v-50.57c7.735-0.634,17.458-1.026,24.491,0.528
		c8.777,1.942,15.291,6.562,18.179,14.529c1.468,4.068,2.087,9.051,1.366,14.296c-1.262,9.281-6.668,15.274-14.143,18.485
		C476.693,241.121,466.127,240.594,454.591,240.519 M486,216.717c0.817-11.735-7.068-18.763-19.158-17.038v30.959
		C478.483,231.49,485.31,226.708,486,216.717"/>
	<path fill-rule="evenodd" clip-rule="evenodd" fill="#231F20" d="M543.729,190.172h12.324v50.347h-12.398v-50.113
		C543.649,190.293,543.649,190.18,543.729,190.172"/>
	<path fill-rule="evenodd" clip-rule="evenodd" fill="#231F20" d="M605.797,190.252h12.314v9.579h-12.393v-9.354
		C605.709,190.366,605.709,190.261,605.797,190.252"/>
	<path fill-rule="evenodd" clip-rule="evenodd" fill="#231F20" d="M639.948,191.92c0.428,0.25,0.229,0.907,0.229,1.294v10.116
		c2.508,0.175,5.35,0.023,7.979,0.08v9.119h-7.979c0.262,4.03-0.354,10.167,0,14.228c0.385,4.388,4.588,4.9,9.049,3.649
		c-0.018,3.288,0.135,6.407,0.078,9.74c-6.188,1.716-14.238,1.716-17.957-2.055c-4.955-5.042-2.939-15.95-3.344-25.48
		c-1.443-0.178-3.215-0.023-4.789-0.082v-9.119h4.789v-10.116C631.977,192.819,636,192.41,639.948,191.92"/>
	<path fill-rule="evenodd" clip-rule="evenodd" fill="#231F20" d="M668.694,191.92c0.354,3.481,0.059,7.63,0.152,11.41
		c2.537,0.175,5.398,0.023,8.062,0.08v9.119h-7.98c-0.146,2.977-0.082,6.811-0.082,10.27c0,3.483-0.074,6.763,2.51,7.837
		c1.766,0.732,4.572,0.204,6.617-0.229c-0.062,3.328,0.113,6.436,0.076,9.74c-3.588,0.806-7.605,1.459-11.408,0.914
		c-3.506-0.508-6.322-2.064-7.982-4.799c-3.328-5.455-1.365-15.306-1.902-23.65c-1.451-0.178-3.215-0.023-4.789-0.082v-9.119h4.709
		c0.178-3.226,0.021-6.771,0.08-10.116C660.719,192.819,664.747,192.41,668.694,191.92"/>
	<path fill-rule="evenodd" clip-rule="evenodd" fill="#231F20" d="M537.567,225.919h-22.889c0.988,7.396,12.885,6.754,19.088,4.487
		c0.615,2.839,1.264,5.641,1.825,8.515c-6.128,2.876-16.437,3.269-22.739,0.307c-6.156-2.889-10.213-8.421-10.189-16.958
		c0.03-11.062,6.701-19.261,17.568-19.774C533.463,201.868,539.67,212.242,537.567,225.919 M520.081,211.166
		c-3.468,0.324-5.539,2.866-5.632,6.457h12.168C526.441,213.639,524.184,210.772,520.081,211.166"/>
	<path fill-rule="evenodd" clip-rule="evenodd" fill="#231F20" d="M715.393,225.919h-22.891c0.973,7.431,12.893,6.733,19.088,4.487
		c0.586,2.862,1.236,5.662,1.83,8.515c-5.01,2.328-13.439,3.14-19.625,1.448c-5.832-1.59-10.123-5.383-12.098-10.72
		c-2.32-6.297-1.088-14.028,1.748-18.716c2.93-4.806,7.729-8.438,14.762-8.438C711.534,202.495,717.344,212.041,715.393,225.919
		 M697.903,211.166c-3.488,0.324-5.453,2.791-5.705,6.457h12.244C704.225,213.66,702.026,210.791,697.903,211.166"/>
	<path fill-rule="evenodd" clip-rule="evenodd" fill="#231F20" d="M580.167,202.647c6.314-0.337,11.223,1.611,14.529,4.788
		c3.109,3.002,5.502,7.719,5.623,13.696c0.129,6.395-1.846,10.901-5.021,14.294c-3.064,3.273-7.549,5.623-13.383,5.857
		c-6.111,0.25-11.057-1.732-14.455-4.87c-3.361-3.104-5.629-7.5-5.775-13.533c-0.227-9.354,4.104-15.572,10.494-18.483
		C574.424,203.369,577.325,202.8,580.167,202.647 M574.383,220.065c-0.539,5.174,0.945,10.033,4.262,11.56
		c3.047,1.403,5.771-0.311,6.994-2.058c3.57-5.076,2.582-18.624-5.25-17.716C576.389,212.314,574.817,215.939,574.383,220.065"/>
	<path fill-rule="evenodd" clip-rule="evenodd" fill="#231F20" d="M605.797,203.41h12.314v37.108h-12.393v-36.885
		C605.709,203.528,605.709,203.417,605.797,203.41"/>
	<path fill="#231F20" d="M734.856,234.496c0-3.785-3.074-6.853-6.859-6.853c-3.787,0-6.859,3.067-6.859,6.853
		c0,3.787,3.072,6.859,6.859,6.859C731.782,241.355,734.856,238.283,734.856,234.496"/>
	<path fill="#231F20" d="M389.706,211.089c-0.395,0-0.811,0.04-1.225,0.081c-3.924,0.515-4.097,2.183-3.85,3.669
		c0.204,1.227,0.957,1.692,2.348,1.756c0.989-0.154,1.341-0.154,2.011-0.154c1.876,0,3.227,0.669,4.055,2.009
		c0.824,1.345,1.238,3.664,1.238,6.974c0,3.311-0.488,5.652-1.462,7.03c-0.974,1.379-2.928,2.066-5.871,2.066
		c-0.519,0-1.352-0.032-2.504-0.109c-0.486-0.025-1.629-0.167-1.629-2.549v-11.08c0-0.28,0.023-0.54,0.042-0.804l0.015-7.257
		c-0.021,0.012-0.037,0.017-0.057,0.024v-9.275c0-1.78-1.339-3.241-2.979-3.241c-1.638,0-2.976,1.461-2.976,3.241v32.498
		c0,1.776,0.716,3.2,2.394,3.415l0.812,0.108c3.75,0.33,5.154,0.377,6.883,0.377c4.999,0,8.493-1.054,10.477-3.17
		c1.982-2.112,2.976-5.852,2.976-11.217c0-5.369-0.835-9.11-2.509-11.22C396.221,212.148,393.495,211.089,389.706,211.089"/>
</g>
</svg>
